<svg xmlns="http://www.w3.org/2000/svg" width="11.374" height="18.558" viewBox="0 0 11.374 18.558">
  <g id="multimedia-option" transform="translate(11.374 18.558) rotate(180)">
    <g id="Group_7" data-name="Group 7" transform="translate(0 0)">
      <path id="Path_2" data-name="Path 2" d="M11.134,8.77,1.393.21a.9.9,0,0,0-1.154,0,.661.661,0,0,0,0,1.017L9.4,9.279.24,17.329a.66.66,0,0,0,0,1.017.874.874,0,0,0,.578.211.873.873,0,0,0,.577-.21l9.741-8.56a.66.66,0,0,0,0-1.019Z" transform="translate(0 0)" fill="#2b2a27"/>
    </g>
  </g>
</svg>
